<svg width="37" height="35" viewBox="0 0 37 35" fill="none" xmlns="http://www.w3.org/2000/svg">
<path d="M37 7.38081C37 6.29033 36.5611 5.24452 35.7797 4.47344C34.9983 3.70235 33.9385 3.26916 32.8335 3.26916H28.7317V1.65192C28.7317 1.40959 28.6342 1.17719 28.4605 1.00584C28.2869 0.834485 28.0514 0.73822 27.8058 0.73822C27.5603 0.73822 27.3248 0.834485 27.1511 1.00584C26.9775 1.17719 26.8799 1.40959 26.8799 1.65192V3.26916H10.9174V1.65192C10.9174 1.40959 10.8198 1.17719 10.6462 1.00584C10.4725 0.834485 10.237 0.73822 9.99146 0.73822C9.74589 0.73822 9.51038 0.834485 9.33674 1.00584C9.1631 1.17719 9.06555 1.40959 9.06555 1.65192V3.26916H4.9638C3.85876 3.26916 2.79898 3.70235 2.0176 4.47344C1.23622 5.24452 0.797241 6.29033 0.797241 7.38081V30.1502C0.797241 31.2406 1.23622 32.2865 2.0176 33.0575C2.79898 33.8286 3.85876 34.2618 4.9638 34.2618H32.8335C33.9385 34.2618 34.9983 33.8286 35.7797 33.0575C36.5611 32.2865 37 31.2406 37 30.1502V7.38081ZM35.1482 30.1547C35.1482 30.4547 35.0884 30.7517 34.972 31.0289C34.8557 31.306 34.6852 31.5578 34.4703 31.7699C34.2553 31.9821 34.0001 32.1503 33.7193 32.2651C33.4385 32.3799 33.1375 32.439 32.8335 32.439H4.9638C4.65983 32.439 4.35882 32.3799 4.07799 32.2651C3.79715 32.1503 3.54197 31.9821 3.32702 31.7699C3.11208 31.5578 2.94157 31.306 2.82525 31.0289C2.70892 30.7517 2.64905 30.4547 2.64905 30.1547V14.2792H35.1482V30.1547ZM35.1482 12.4564H2.64905V7.38081C2.64905 6.77499 2.89292 6.19398 3.32702 5.7656C3.76112 5.33722 4.34989 5.09656 4.9638 5.09656H9.07018V7.6275C9.07018 7.86983 9.16773 8.10224 9.34137 8.27359C9.51501 8.44494 9.75052 8.5412 9.99609 8.5412C10.2417 8.5412 10.4772 8.44494 10.6508 8.27359C10.8244 8.10224 10.922 7.86983 10.922 7.6275V5.09656H26.8799V7.6275C26.8799 7.86983 26.9775 8.10224 27.1511 8.27359C27.3248 8.44494 27.5603 8.5412 27.8058 8.5412C28.0514 8.5412 28.2869 8.44494 28.4605 8.27359C28.6342 8.10224 28.7317 7.86983 28.7317 7.6275V5.09656H32.8335C33.4474 5.09656 34.0362 5.33722 34.4703 5.7656C34.9044 6.19398 35.1482 6.77499 35.1482 7.38081V12.4564Z" fill="white"/>
<path d="M11.9589 17.0432H11.9543C10.9239 17.0432 10.0886 17.8674 10.0886 18.8843V18.8888C10.0886 19.9056 10.9239 20.7299 11.9543 20.7299H11.9589C12.9893 20.7299 13.8246 19.9056 13.8246 18.8888V18.8843C13.8246 17.8674 12.9893 17.0432 11.9589 17.0432Z" fill="white"/>
<path d="M16.5885 17.0432H16.5838C15.5534 17.0432 14.7181 17.8674 14.7181 18.8843V18.8888C14.7181 19.9056 15.5534 20.7299 16.5838 20.7299H16.5885C17.6189 20.7299 18.4542 19.9056 18.4542 18.8888V18.8843C18.4542 17.8674 17.6189 17.0432 16.5885 17.0432Z" fill="white"/>
<path d="M21.218 17.0432H21.2134C20.183 17.0432 19.3477 17.8674 19.3477 18.8843V18.8888C19.3477 19.9056 20.183 20.7299 21.2134 20.7299H21.218C22.2484 20.7299 23.0837 19.9056 23.0837 18.8888V18.8843C23.0837 17.8674 22.2484 17.0432 21.218 17.0432Z" fill="white"/>
<path d="M25.8475 17.0432H25.8429C24.8125 17.0432 23.9772 17.8674 23.9772 18.8843V18.8888C23.9772 19.9056 24.8125 20.7299 25.8429 20.7299H25.8475C26.8779 20.7299 27.7132 19.9056 27.7132 18.8888V18.8843C27.7132 17.8674 26.8779 17.0432 25.8475 17.0432Z" fill="white"/>
<path d="M30.477 17.0432H30.4724C29.442 17.0432 28.6067 17.8674 28.6067 18.8843V18.8888C28.6067 19.9056 29.442 20.7299 30.4724 20.7299H30.477C31.5074 20.7299 32.3427 19.9056 32.3427 18.8888V18.8843C32.3427 17.8674 31.5074 17.0432 30.477 17.0432Z" fill="white"/>
<path d="M7.32943 21.6116H7.3248C6.29441 21.6116 5.45911 22.4359 5.45911 23.4527V23.4573C5.45911 24.4741 6.29441 25.2984 7.3248 25.2984H7.32943C8.35982 25.2984 9.19512 24.4741 9.19512 23.4573V23.4527C9.19512 22.4359 8.35982 21.6116 7.32943 21.6116Z" fill="white"/>
<path d="M11.9589 21.6116H11.9543C10.9239 21.6116 10.0886 22.4359 10.0886 23.4527V23.4573C10.0886 24.4741 10.9239 25.2984 11.9543 25.2984H11.9589C12.9893 25.2984 13.8246 24.4741 13.8246 23.4573V23.4527C13.8246 22.4359 12.9893 21.6116 11.9589 21.6116Z" fill="white"/>
<path d="M16.5885 21.6116H16.5838C15.5534 21.6116 14.7181 22.4359 14.7181 23.4527V23.4573C14.7181 24.4741 15.5534 25.2984 16.5838 25.2984H16.5885C17.6189 25.2984 18.4542 24.4741 18.4542 23.4573V23.4527C18.4542 22.4359 17.6189 21.6116 16.5885 21.6116Z" fill="white"/>
<path d="M21.218 21.6116H21.2134C20.183 21.6116 19.3477 22.4359 19.3477 23.4527V23.4573C19.3477 24.4741 20.183 25.2984 21.2134 25.2984H21.218C22.2484 25.2984 23.0837 24.4741 23.0837 23.4573V23.4527C23.0837 22.4359 22.2484 21.6116 21.218 21.6116Z" fill="white"/>
<path d="M25.8475 21.6116H25.8429C24.8125 21.6116 23.9772 22.4359 23.9772 23.4527V23.4573C23.9772 24.4741 24.8125 25.2984 25.8429 25.2984H25.8475C26.8779 25.2984 27.7132 24.4741 27.7132 23.4573V23.4527C27.7132 22.4359 26.8779 21.6116 25.8475 21.6116Z" fill="white"/>
<path d="M30.477 21.6116H30.4724C29.442 21.6116 28.6067 22.4359 28.6067 23.4527V23.4573C28.6067 24.4741 29.442 25.2984 30.4724 25.2984H30.477C31.5074 25.2984 32.3427 24.4741 32.3427 23.4573V23.4527C32.3427 22.4359 31.5074 21.6116 30.477 21.6116Z" fill="white"/>
<path d="M7.32943 26.1801H7.3248C6.29441 26.1801 5.45911 27.0044 5.45911 28.0212V28.0258C5.45911 29.0426 6.29441 29.8669 7.3248 29.8669H7.32943C8.35982 29.8669 9.19512 29.0426 9.19512 28.0258V28.0212C9.19512 27.0044 8.35982 26.1801 7.32943 26.1801Z" fill="white"/>
<path d="M11.9589 26.1801H11.9543C10.9239 26.1801 10.0886 27.0044 10.0886 28.0212V28.0258C10.0886 29.0426 10.9239 29.8669 11.9543 29.8669H11.9589C12.9893 29.8669 13.8246 29.0426 13.8246 28.0258V28.0212C13.8246 27.0044 12.9893 26.1801 11.9589 26.1801Z" fill="white"/>
<path d="M16.5885 26.1801H16.5838C15.5534 26.1801 14.7181 27.0044 14.7181 28.0212V28.0258C14.7181 29.0426 15.5534 29.8669 16.5838 29.8669H16.5885C17.6189 29.8669 18.4542 29.0426 18.4542 28.0258V28.0212C18.4542 27.0044 17.6189 26.1801 16.5885 26.1801Z" fill="white"/>
<path d="M21.218 26.1801H21.2134C20.183 26.1801 19.3477 27.0044 19.3477 28.0212V28.0258C19.3477 29.0426 20.183 29.8669 21.2134 29.8669H21.218C22.2484 29.8669 23.0837 29.0426 23.0837 28.0258V28.0212C23.0837 27.0044 22.2484 26.1801 21.218 26.1801Z" fill="white"/>
<path d="M25.8475 26.1801H25.8429C24.8125 26.1801 23.9772 27.0044 23.9772 28.0212V28.0258C23.9772 29.0426 24.8125 29.8669 25.8429 29.8669H25.8475C26.8779 29.8669 27.7132 29.0426 27.7132 28.0258V28.0212C27.7132 27.0044 26.8779 26.1801 25.8475 26.1801Z" fill="white"/>
</svg>
