<svg xmlns="http://www.w3.org/2000/svg" xmlns:xlink="http://www.w3.org/1999/xlink"><symbol id="Union"><path fill-rule="evenodd" clip-rule="evenodd" d="M28 1.5A1.5 1.5 0 0126.5 3h-25a1.5 1.5 0 110-3h25A1.5 1.5 0 0128 1.5zm0 14a1.5 1.5 0 01-1.5 1.5h-25a1.5 1.5 0 010-3h25a1.5 1.5 0 011.5 1.5zM26.5 10a1.5 1.5 0 000-3H10.115a1.5 1.5 0 100 3H26.5z"/></symbol><symbol id="arrow-1"><path opacity=".16" d="M1 65l32-32L1 1" stroke-width="2"/></symbol><symbol id="arrow"><path d="M37 17l8-8-8-8M45 9H0" stroke-width="2"/></symbol><symbol id="bfw"><path fill-rule="evenodd" clip-rule="evenodd" d="M318.264 223.575c-22.535-16.691-54.978-26.006-97.328-27.947 31.083-3.105 58.474-10.092 82.175-20.96 23.7-10.868 41.961-24.648 54.783-41.338 13.21-17.079 19.815-35.71 19.815-55.894 0-24.453-10.49-43.279-31.471-56.476C325.257 7.375 293.009.582 249.493.582c-15.541 0-27.392.194-35.551.582l-49.538.583c-38.465 0-67.993-.583-88.586-1.747l-2.914 11.645c14.764.388 24.866 2.328 30.306 5.822 5.828 3.493 8.742 8.927 8.742 16.302 0 6.21-1.554 15.526-4.662 27.947L30.36 350.5c-3.886 14.75-7.965 25.424-12.24 32.023-3.884 6.598-9.324 11.062-16.318 13.391-6.993 2.329-17.484 3.882-31.47 4.658L-32 412.216c20.98-1.164 51.092-1.746 90.334-1.746 21.37 0 44.099.388 68.188 1.164l33.802.582c37.3 0 70.325-4.852 99.077-14.555 29.14-9.704 51.869-23.872 68.187-42.503 16.319-19.019 24.478-41.92 24.478-68.703 0-25.229-11.267-46.19-33.802-62.88zM215.691 19.795c5.439-5.433 13.987-8.15 25.643-8.15 16.318 0 27.78 4.851 34.385 14.555 6.994 9.704 10.491 23.677 10.491 41.92 0 21.737-4.08 42.309-12.239 61.717-7.771 19.019-19.427 34.351-34.968 45.995-15.153 11.645-33.22 17.467-54.201 17.467h-20.398l37.299-140.316c4.274-16.69 8.937-27.753 13.988-33.187zM205.2 382.524c-16.318 10.868-35.939 16.302-58.863 16.302-10.102 0-17.29-1.747-21.563-5.24-4.274-3.881-6.411-9.51-6.411-16.884 0-4.27 1.554-13.004 4.662-26.201l39.048-147.303h25.643c23.312 0 40.213 6.599 50.704 19.796 10.879 13.197 16.318 30.858 16.318 52.982 0 22.901-4.274 43.667-12.821 62.299-8.16 18.631-20.398 33.381-36.717 44.249zm498.308-251.911c55.172 0 94.608-.582 118.309-1.746-8.936 24.065-16.513 47.742-22.729 71.031-6.605 24.454-10.685 41.532-12.239 51.236h-13.405c1.555-12.033 2.332-23.871 2.332-35.516 0-26.782-5.44-45.607-16.319-56.476-10.49-11.256-27.974-16.884-52.452-16.884h-13.404c-12.822 0-22.535 1.164-29.14 3.493-6.217 1.941-11.268 6.211-15.153 12.809-3.886 6.599-7.577 17.273-11.074 32.023l-37.299 139.734h26.809c18.65 0 34.385-6.405 47.207-19.214 12.822-12.809 23.701-29.693 32.637-50.653h12.821c-5.827 18.243-13.015 43.473-21.563 75.689-3.497 14.75-9.519 43.473-18.067 86.17h-12.822c1.166-26.395-1.554-46.384-8.159-59.97-6.216-13.585-19.038-20.378-38.465-20.378h-23.312l-36.716 137.406c-3.109 11.644-4.663 20.184-4.663 25.618 0 9.315 3.497 15.526 10.491 18.631 7.382 3.105 20.592 5.046 39.63 5.822l-2.331 11.645c-23.701-1.165-58.28-1.747-103.739-1.747-42.738 0-74.404.582-94.996 1.747l2.914-11.645c13.987-.776 24.283-2.329 30.888-4.657 6.994-2.329 12.628-6.793 16.902-13.392 4.273-6.598 8.353-17.272 12.238-32.022l76.93-288.784c3.108-13.198 4.663-22.513 4.663-27.947 0-8.54-2.914-14.168-8.742-16.885-5.44-2.717-15.542-4.464-30.306-5.24l2.914-11.644c42.35 1.164 105.487 1.746 189.41 1.746zm620.202 223.007c17.48 0 32.25-.582 44.29-1.747l-2.91 11.645c-13.6 3.882-25.65 10.092-36.14 18.631-10.49 8.151-21.37 22.513-32.63 43.085L1112.73 767h-30.3l-36.14-259.673L889.52 767h-30.306l-46.041-366.22c-1.554-13.198-5.245-22.513-11.073-27.947-5.828-5.823-12.433-8.928-19.815-9.316l2.914-11.645c19.038 1.165 46.235 1.747 81.592 1.747 33.025 0 58.28-.582 75.764-1.747l-2.914 11.645c-11.267.776-19.232 3.493-23.895 8.151-4.662 4.658-6.993 13.391-6.993 26.2 0 6.211.194 11.063.582 14.556L937.31 665.11l106.65-175.25-12.24-89.08c-1.55-12.809-4.66-22.125-9.32-27.947-4.66-5.823-9.91-8.928-15.74-9.316l2.92-11.645c18.26 1.165 43.51 1.747 75.76 1.747 40.41 0 70.71-.582 90.92-1.747l-2.92 11.645c-17.48.776-29.72 3.493-36.71 8.151-6.61 4.27-9.91 12.615-9.91 25.036 0 2.717.39 7.957 1.17 15.72l30.88 243.371 120.06-220.664c9.71-18.243 14.57-32.605 14.57-43.085 0-9.704-4.08-16.69-12.24-20.96-7.77-4.27-20.01-6.793-36.71-7.569l2.91-11.645c15.93 1.165 41.38 1.747 76.35 1.747z"/></symbol><symbol id="calendar"><path d="M37 7.38c0-1.09-.439-2.135-1.22-2.907a4.195 4.195 0 00-2.947-1.204h-4.101V1.652a.907.907 0 00-.271-.646.932.932 0 00-1.31 0 .908.908 0 00-.271.646v1.617H10.917V1.652a.908.908 0 00-.27-.646.932.932 0 00-1.31 0 .908.908 0 00-.271.646v1.617H4.964a4.195 4.195 0 00-2.946 1.204 4.084 4.084 0 00-1.22 2.908v22.77c0 1.09.438 2.135 1.22 2.906a4.195 4.195 0 002.946 1.205h27.87a4.195 4.195 0 002.946-1.205A4.084 4.084 0 0037 30.15V7.38zm-1.852 22.775a2.257 2.257 0 01-.678 1.615 2.317 2.317 0 01-1.636.669H4.963a2.341 2.341 0 01-1.637-.67 2.282 2.282 0 01-.678-1.614V14.279h32.5v15.876zm0-17.699H2.65V7.381c0-.606.244-1.187.678-1.615a2.33 2.33 0 011.637-.67H9.07v2.532c0 .242.098.474.271.646a.932.932 0 001.31 0 .908.908 0 00.271-.646V5.097H26.88v2.53c0 .243.098.475.271.647a.932.932 0 001.31 0 .907.907 0 00.27-.646V5.097h4.102c.614 0 1.203.24 1.637.669.434.428.678 1.009.678 1.615v5.075z"/><path d="M11.959 17.043h-.005c-1.03 0-1.865.824-1.865 1.841v.005c0 1.017.835 1.84 1.865 1.84h.005c1.03 0 1.866-.823 1.866-1.84v-.005c0-1.017-.836-1.84-1.866-1.84zM16.588 17.043h-.004c-1.03 0-1.866.824-1.866 1.841v.005c0 1.017.835 1.84 1.866 1.84h.005c1.03 0 1.865-.823 1.865-1.84v-.005c0-1.017-.835-1.84-1.866-1.84zM21.218 17.043h-.005c-1.03 0-1.865.824-1.865 1.841v.005c0 1.017.835 1.84 1.865 1.84h.005c1.03 0 1.866-.823 1.866-1.84v-.005c0-1.017-.836-1.84-1.866-1.84zM25.848 17.043h-.005c-1.03 0-1.866.824-1.866 1.841v.005c0 1.017.835 1.84 1.866 1.84h.005c1.03 0 1.865-.823 1.865-1.84v-.005c0-1.017-.835-1.84-1.866-1.84zM30.477 17.043h-.005c-1.03 0-1.865.824-1.865 1.841v.005c0 1.017.835 1.84 1.865 1.84h.005c1.03 0 1.866-.823 1.866-1.84v-.005c0-1.017-.836-1.84-1.866-1.84zM7.33 21.612h-.005c-1.03 0-1.866.824-1.866 1.84v.005c0 1.017.835 1.841 1.866 1.841h.004c1.03 0 1.866-.824 1.866-1.84v-.005c0-1.017-.835-1.841-1.866-1.841zM11.959 21.612h-.005c-1.03 0-1.865.824-1.865 1.84v.005c0 1.017.835 1.841 1.865 1.841h.005c1.03 0 1.866-.824 1.866-1.84v-.005c0-1.017-.836-1.841-1.866-1.841zM16.588 21.612h-.004c-1.03 0-1.866.824-1.866 1.84v.005c0 1.017.835 1.841 1.866 1.841h.005c1.03 0 1.865-.824 1.865-1.84v-.005c0-1.017-.835-1.841-1.866-1.841zM21.218 21.612h-.005c-1.03 0-1.865.824-1.865 1.84v.005c0 1.017.835 1.841 1.865 1.841h.005c1.03 0 1.866-.824 1.866-1.84v-.005c0-1.017-.836-1.841-1.866-1.841zM25.848 21.612h-.005c-1.03 0-1.866.824-1.866 1.84v.005c0 1.017.835 1.841 1.866 1.841h.005c1.03 0 1.865-.824 1.865-1.84v-.005c0-1.017-.835-1.841-1.866-1.841zM30.477 21.612h-.005c-1.03 0-1.865.824-1.865 1.84v.005c0 1.017.835 1.841 1.865 1.841h.005c1.03 0 1.866-.824 1.866-1.84v-.005c0-1.017-.836-1.841-1.866-1.841zM7.33 26.18h-.005c-1.03 0-1.866.824-1.866 1.841v.005c0 1.017.835 1.84 1.866 1.84h.004c1.03 0 1.866-.823 1.866-1.84v-.005c0-1.017-.835-1.84-1.866-1.84zM11.959 26.18h-.005c-1.03 0-1.865.824-1.865 1.841v.005c0 1.017.835 1.84 1.865 1.84h.005c1.03 0 1.866-.823 1.866-1.84v-.005c0-1.017-.836-1.84-1.866-1.84zM16.588 26.18h-.004c-1.03 0-1.866.824-1.866 1.841v.005c0 1.017.835 1.84 1.866 1.84h.005c1.03 0 1.865-.823 1.865-1.84v-.005c0-1.017-.835-1.84-1.866-1.84zM21.218 26.18h-.005c-1.03 0-1.865.824-1.865 1.841v.005c0 1.017.835 1.84 1.865 1.84h.005c1.03 0 1.866-.823 1.866-1.84v-.005c0-1.017-.836-1.84-1.866-1.84zM25.848 26.18h-.005c-1.03 0-1.866.824-1.866 1.841v.005c0 1.017.835 1.84 1.866 1.84h.005c1.03 0 1.865-.823 1.865-1.84v-.005c0-1.017-.835-1.84-1.866-1.84z"/></symbol><symbol id="fb"><path d="M.562 18.641h3.822v15.794c0 .312.251.565.562.565h6.48c.31 0 .562-.253.562-.565v-15.72h4.393a.563.563 0 00.558-.5l.667-5.814a.566.566 0 00-.558-.63h-5.06V8.127c0-1.1.589-1.656 1.751-1.656h3.309c.31 0 .562-.253.562-.565V.57a.563.563 0 00-.562-.565h-4.56A4.456 4.456 0 0012.28 0c-.79 0-3.54.156-5.713 2.162C4.16 4.386 4.494 7.048 4.574 7.51v4.262H.562a.563.563 0 00-.562.565v5.74c0 .312.252.565.562.565z"/></symbol><symbol id="insta"><path d="M4.332.566h25.075c2.382 0 4.33 1.956 4.33 4.348v25.175c0 2.39-1.948 4.345-4.33 4.345H4.332C1.95 34.434 0 32.48 0 30.09V4.913C0 2.522 1.95.566 4.332.566zm20.245 3.762c-.837 0-1.519.687-1.519 1.527v3.648c0 .84.682 1.526 1.519 1.526h3.813c.835 0 1.518-.687 1.518-1.526V5.855c0-.84-.683-1.527-1.518-1.527h-3.813zm5.346 10.56h-2.969c.282.923.434 1.897.434 2.909 0 5.631-4.696 10.2-10.488 10.2-5.79 0-10.487-4.569-10.487-10.2 0-1.012.154-1.986.434-2.909H3.75v14.309c0 .74.603 1.344 1.34 1.344h23.493c.738 0 1.34-.603 1.34-1.344V14.888zM16.9 10.836c-3.74 0-6.774 2.95-6.774 6.592 0 3.639 3.034 6.591 6.774 6.591 3.743 0 6.777-2.952 6.777-6.59 0-3.643-3.034-6.593-6.777-6.593z"/></symbol><symbol id="location"><path d="M.086 33.767l4.806-9.76a.884.884 0 01.461-.426l2.391-1.021-4.142-6.667a10.423 10.423 0 01-1.27-5.006c0-2.936 1.2-5.69 3.377-7.752C7.887 1.073 10.772-.04 13.832.001c2.972.04 5.77 1.186 7.88 3.228 2.11 2.042 3.28 4.738 3.298 7.592a10.566 10.566 0 01-1.269 5.072L19.6 22.56l2.404 1.028a.883.883 0 01.448.42l4.805 9.76a.838.838 0 01-.17.973.927.927 0 01-1.009.185l-6.02-2.573-6.02 2.573c-.233.1-.499.1-.732 0l-6.02-2.573-6.02 2.573a.931.931 0 01-1.009-.185.838.838 0 01-.17-.973zm22.095-18.734a8.766 8.766 0 001.03-4.201c-.03-4.951-4.25-9.035-9.404-9.104-2.575-.033-5.003.902-6.834 2.637C5.14 6.1 4.13 8.417 4.13 10.887c0 1.46.347 2.855 1.03 4.146L12.9 27.484c.236.38.619.421.772.421a.896.896 0 00.773-.42l7.737-12.452zM6.92 30.618c.232-.1.498-.1.731 0l6.02 2.573 6.02-2.573c.233-.1.5-.1.732 0l4.17 1.782-3.626-7.365-2.296-.982-2.682 4.316c-.492.791-1.358 1.263-2.318 1.263-.959 0-1.825-.472-2.317-1.263l-2.681-4.316-2.297.982L2.749 32.4l4.17-1.782z"/><path d="M13.671 6.946c2.264 0 4.105 1.768 4.105 3.941 0 2.174-1.841 3.942-4.105 3.942-2.263 0-4.105-1.768-4.105-3.942 0-2.173 1.842-3.941 4.105-3.941zm0 6.156c1.272 0 2.306-.994 2.306-2.215 0-1.22-1.034-2.214-2.306-2.214-1.271 0-2.306.993-2.306 2.214s1.034 2.215 2.306 2.215z"/></symbol><symbol id="logo"><title>&#x41B;&#x43E;&#x433;&#x43E; &#x430;&#x433;&#x435;&#x43D;&#x441;&#x442;&#x432;&#x430; Blade</title><path d="M27.3 30.736c-.19 3.055-1.336 5.346-3.055 7.064-2.1 1.91-5.536 2.864-10.309 2.864-1.145 0-2.1-.191-2.672-.382-.573-.382-.764-.764-.764-1.527 0-.573.19-1.337.573-2.673l.954-3.437c-1.718 0-3.627.191-5.345.382l-.764 2.864c-.382 1.336-.763 2.482-1.145 3.055-.382.572-.955 1.145-1.528 1.336-.763.19-1.718.382-3.054.382L0 41.809c1.527-.19 3.818-.19 6.873-.19 1.527 0 3.245 0 5.536.19h4.01c2.863 0 5.535-.382 8.017-1.336 2.482-.955 4.582-2.291 6.3-4.01a9.79 9.79 0 002.482-6.49c-2.1.19-4.009.382-5.918.763zM12.982 19.855h4.582c5.345 0 8.018 2.481 8.018 7.445 0 .573 0 .955-.191 1.527l5.727-.572c0-2.291-.763-4.391-2.1-5.919-1.527-1.527-3.818-2.672-7.063-3.245a22.582 22.582 0 008.209-4.391c2.29-1.91 3.245-4.39 3.245-7.064 0-2.29-.954-4.009-2.673-5.345C29.018.955 26.346.38 22.91.38h-7.827c-2.864 0-5.155 0-6.682-.19l-.382 1.145c1.337 0 2.482.191 2.864.573.573.382.764.955.764 1.527 0 .764-.191 1.528-.382 2.673L4.582 30.927c1.909 0 3.818-.19 5.536-.381l2.864-10.691zM16.8 5.345c.382-1.527.955-2.672 1.718-3.245.764-.573 1.91-.764 3.437-.764 2.1 0 3.627.573 4.581 1.528.955 1.145 1.528 2.672 1.528 4.963 0 1.91-.382 3.819-1.337 5.346a11.024 11.024 0 01-3.818 4.009c-1.718.954-3.627 1.527-5.727 1.527h-4.01L16.8 5.345zM51.927 6.3c.382-1.336.764-2.482 1.146-3.055.382-.572.954-1.145 1.527-1.336.573-.19 1.718-.382 3.055-.382l.381-1.145c-1.718.19-4.009.19-7.063.19-3.246 0-5.537 0-7.255-.19l-.19 1.145c1.336 0 2.481.191 2.863.573.573.19.764.764.764 1.527 0 .573-.191 1.528-.573 2.673l-5.537 20.81c1.719-.192 3.628-.383 5.346-.574L51.927 6.3zM62.81 36.464c-.955 1.527-2.1 2.481-3.437 3.245-1.337.764-3.246.955-5.537.955h-4.009c-1.336 0-2.481-.191-3.054-.382s-.764-.764-.764-1.527c0-.764.191-1.528.573-2.673l2.1-7.637c-1.718.191-3.627.382-5.346.573l-1.909 7.064c-.382 1.336-.763 2.482-1.145 3.054-.382.573-.955 1.146-1.527 1.337-.573.19-1.719.382-3.055.382l-.573.954c3.628-.19 8.973-.19 16.228-.19 5.918 0 10.309 0 12.79.19.382-2.673.955-5.154 1.528-7.255.763-2.29 1.145-3.818 1.336-4.581h-1.336c-.955 2.863-1.91 4.963-2.864 6.49zM89.536 6.873L90.3 21.19c1.718-.191 3.436-.382 4.964-.573L94.118 0h-.763L77.127 22.718c.382 0 .955-.19 1.337-.19L89.536 6.872zM98.127 37.227l-.954-14.7c-1.718.191-3.437.382-4.964.573l.191 2.673H79.418l.764-1.146c-.382 0-.955.191-1.337.191l-7.827 11.073c-2.1 2.864-3.818 4.582-5.536 4.964L65.29 42c1.145-.19 2.673-.19 4.2-.19 2.29 0 4.39 0 6.3.19l.19-1.145c-2.672 0-4.2-.955-4.2-2.482 0-1.146.955-3.055 2.674-5.537l4.2-5.918H92.4l.573 9.164c0 1.336 0 2.29-.382 2.863s-.764 1.146-1.527 1.337c-.764.19-1.718.382-2.864.382l-.19 1.145c1.526-.19 3.626-.19 6.681-.19 2.482 0 4.582 0 6.109.19l.191-1.145c-.764 0-1.336-.382-1.718-.955-.382-.573-.955-1.336-1.146-2.482zM119.891 6.11c.382-1.337.764-2.292 1.145-3.055a2.554 2.554 0 011.528-1.337c.572-.19 1.527-.382 2.672-.382 4.2 0 7.255.764 9.164 2.482 1.909 1.718 2.864 4.2 2.864 7.446 0 .954 0 1.909-.191 2.863 1.909-.382 3.627-.572 5.536-.954V12.6c0-4.01-1.336-7.064-4.009-9.164-2.673-2.1-6.491-3.054-11.836-3.054-.764 0-2.482 0-5.155.19h-4.773c-2.29 0-4.2 0-5.345-.19v.954c1.336 0 2.482.191 2.864.573.572.382.763.764.763 1.527 0 .382-.191 1.337-.572 2.673l-3.055 12.218c1.718-.19 3.627-.572 5.345-.763l3.055-11.455zM139.173 16.036c-.191 3.819-1.146 7.446-2.482 10.882-1.718 4.2-4.2 7.636-7.445 10.118-3.246 2.482-7.255 3.819-11.837 3.819-1.336 0-2.1-.191-2.673-.573-.572-.382-.763-.764-.763-1.527 0-.573.191-1.337.573-2.673l4.39-16.61c-1.718.192-3.627.573-5.345.764L109.2 35.891c-.382 1.336-.764 2.482-1.145 3.055-.382.572-.955 1.145-1.528 1.336-.572.19-1.527.382-2.863.382l-.191 1.145c1.527-.19 3.627-.19 6.682-.19.954 0 2.481 0 4.581.19h3.246c4.964 0 9.545-1.336 13.554-3.818 4.01-2.482 7.255-5.918 9.546-10.118 2.291-4.01 3.436-8.21 3.436-12.791-1.718.382-3.627.763-5.345.954zM149.864 35.89c-.382 1.337-.764 2.483-1.146 3.055-.382.573-.954 1.146-1.527 1.337-.573.19-1.718.382-3.055.382l-.191 1.145c3.628-.19 8.973-.19 16.228-.19 5.918 0 10.309 0 12.791.19.381-2.673.954-5.154 1.527-7.255a55.568 55.568 0 011.145-4.009H174.3c-.955 2.673-1.909 4.582-2.864 6.11-.954 1.336-2.1 2.29-3.436 3.054-1.336.764-3.245.955-5.536.955h-4.009c-1.337 0-2.482-.191-3.055-.382s-.764-.764-.764-1.527c0-.764.191-1.528.573-2.673l3.627-13.364h3.628c1.336 0 2.482.382 3.054.955.573.572.955 1.527.955 2.672 0 .382 0 .955-.191 1.528 0 .572-.191.954-.191 1.145l-.191 1.146h1.336c.764-3.246 1.337-5.919 1.719-8.019l.381-1.336c.573-1.909 1.146-4.2 1.91-6.682h-1.337c-.191.382-.382.764-.382 1.146-.572 1.336-.954 2.29-1.527 3.054-.573.764-1.145 1.527-2.1 2.1-.955.573-1.909.955-3.245.955h-3.628l2.482-9.355c-1.909.382-3.627.764-5.536 1.146l-6.109 22.718zM179.836.382c-2.291.19-5.918.19-11.072.19-7.255 0-12.6 0-16.228-.19l-.191 1.145c1.337 0 2.482.191 2.864.573.573.19.764.764.764 1.527 0 .573-.191 1.528-.573 2.673l-1.336 4.773c1.909-.382 3.627-.764 5.536-1.146l.955-3.818c.381-1.336.763-2.482 1.145-3.054.382-.573.955-1.146 1.527-1.337.764 0 1.718-.19 3.246-.19h4.009c2.1 0 3.627.381 4.391.954.763.573 1.145 1.718 1.145 3.436v.764c.573-.191 1.146-.191 1.718-.382.573-1.718 1.337-3.627 2.1-5.918z"/><path d="M176.018 6.49c0 .955-.191 2.1-.382 3.82h1.337c.191-.955.382-2.1.763-3.437 0-.191.191-.573.191-.764-.572.191-1.145.382-1.909.382z"/></symbol><symbol id="map-pin"><path fill-rule="evenodd" clip-rule="evenodd" d="M7.691 6.833C12.332 2.56 18.618.169 25.164.185 31.71.17 37.995 2.56 42.637 6.833c4.642 4.272 7.26 10.077 7.277 16.136 0 12.59-18.563 41.778-24.75 41.778-6.188 0-24.75-29.188-24.75-41.778.018-6.06 2.635-11.864 7.277-16.136zm7.73 14.241c0 4.98 4.362 9.018 9.743 9.018 5.38 0 9.742-4.038 9.742-9.018s-4.361-9.018-9.742-9.018c-5.38 0-9.743 4.038-9.743 9.018z"/></symbol><symbol id="twitter"><path d="M34.072 3.48c-.548.243-1.111.449-1.687.616a7.49 7.49 0 001.518-2.679.566.566 0 00-.185-.614.56.56 0 00-.638-.044 13.238 13.238 0 01-3.922 1.557A7.505 7.505 0 0023.92.172c-4.127 0-7.484 3.37-7.484 7.514 0 .326.02.65.061.97a19.137 19.137 0 01-13.15-7.004.56.56 0 00-.922.073 7.533 7.533 0 00-1.013 3.777c0 1.81.643 3.529 1.78 4.87a6.328 6.328 0 01-1-.448.56.56 0 00-.836.48v.1a7.546 7.546 0 003.663 6.462 6.45 6.45 0 01-.57-.083.566.566 0 00-.64.727 7.492 7.492 0 005.481 5.036 13.201 13.201 0 01-7.077 2.028c-.53 0-1.063-.032-1.585-.093a.566.566 0 00-.37 1.036 20.124 20.124 0 0010.914 3.21c7.62 0 12.386-3.606 15.043-6.633 3.313-3.773 5.213-8.767 5.213-13.702 0-.206-.003-.415-.01-.622a14.583 14.583 0 003.349-3.56.566.566 0 00-.037-.678.56.56 0 00-.658-.153z"/></symbol><symbol id="winner"><path d="M39.857 4.235a.932.932 0 00-.79-.439h-7.623l.424-2.54a.937.937 0 00-.536-1.007.928.928 0 00-.395-.082H9.067a.928.928 0 00-.91.683.938.938 0 00-.021.405l.423 2.541H.933a.928.928 0 00-.792.44.937.937 0 00-.046.905l4.034 8.324a8.399 8.399 0 002.856 3.27 8.355 8.355 0 004.101 1.4 9.437 9.437 0 002.018 3.326 9.393 9.393 0 003.184 2.224v4.428h-1.047c-1.152 0-2.257.46-3.071 1.277a4.369 4.369 0 000 6.166 4.336 4.336 0 003.071 1.277h9.54c1.152 0 2.257-.46 3.071-1.277a4.368 4.368 0 000-6.166 4.335 4.335 0 00-3.071-1.277h-1.047v-4.428a9.394 9.394 0 003.174-2.229 9.435 9.435 0 002.01-3.325 8.355 8.355 0 004.1-1.4 8.397 8.397 0 002.856-3.27l4.034-8.324a.938.938 0 00-.05-.902zM5.823 12.643L2.44 5.664h6.45l1.75 10.543a6.469 6.469 0 01-2.843-1.191 6.5 6.5 0 01-1.974-2.373zm21.438 19.832a2.5 2.5 0 01-.728 1.76 2.48 2.48 0 01-1.752.73h-9.54c-.658 0-1.29-.263-1.755-.73a2.497 2.497 0 010-3.524 2.478 2.478 0 011.755-.73h9.54a2.48 2.48 0 011.754.732 2.5 2.5 0 01.726 1.762zm-5.389-4.362H18.15v-3.844a9.271 9.271 0 003.722 0v3.844zm-1.861-5.526a7.545 7.545 0 01-4.908-1.798 7.597 7.597 0 01-2.575-4.564l-2.354-14.19h19.674l-2.355 14.19a7.597 7.597 0 01-2.574 4.564 7.545 7.545 0 01-4.908 1.798zm14.188-9.944a6.5 6.5 0 01-1.975 2.37 6.47 6.47 0 01-2.841 1.189l1.75-10.538h6.449l-3.383 6.979z"/></symbol></svg>